<svg version="1.1" id="Layer_1" xmlns="http://www.w3.org/2000/svg" xmlns:xlink="http://www.w3.org/1999/xlink" x="0px" y="0px"
	 width="100%" viewBox="0 0 153 282" enable-background="new 0 0 153 282" xml:space="preserve">
<path fill="#025EB8" opacity="1.000000" stroke="none" 
	d="
M1.000002,164.000000 
	C1.000000,152.979111 1.000000,141.958206 1.409453,130.581055 
	C2.190055,129.723984 2.784323,129.269623 2.899678,128.715546 
	C5.687341,115.325935 7.544134,101.669907 11.349827,88.579720 
	C19.683552,59.914753 25.123625,30.967409 24.000000,1.000000 
	C58.687561,1.000000 93.375122,1.000000 128.405487,1.401225 
	C129.498337,3.288931 130.783493,4.730852 130.911591,6.269119 
	C131.744431,16.270805 131.620804,26.402590 133.150833,36.284222 
	C135.590790,52.042500 138.890015,67.678116 142.178009,83.291458 
	C144.858093,96.018181 147.991318,108.651558 151.070999,121.290413 
	C151.716812,123.940811 153.006836,126.434235 154.000000,129.000000 
	C154.000000,140.687561 154.000000,152.375122 153.615173,164.398117 
	C152.844055,165.225876 152.237930,165.664932 152.103790,166.218353 
	C149.291046,177.825073 143.948730,188.033356 135.190079,196.241882 
	C131.358673,199.832642 127.291756,203.201614 123.117783,206.391266 
	C114.124603,213.263596 112.999588,218.245605 117.848289,228.547043 
	C122.567924,238.574265 127.572487,248.542435 131.245560,258.961823 
	C133.871933,266.412048 132.360870,273.985748 125.852997,279.656372 
	C124.570938,280.773529 123.284447,281.885590 122.000000,283.000000 
	C108.312439,283.000000 94.624878,283.000000 80.294189,282.699219 
	C78.434052,282.598969 77.217026,282.799500 76.000000,283.000000 
	C61.979107,283.000000 47.958210,283.000000 33.629791,282.646790 
	C26.103746,278.544006 22.596666,272.652252 22.997387,264.478149 
	C23.581478,252.563614 29.138458,242.407181 35.061874,232.631348 
	C42.806900,219.849152 42.042027,214.631607 30.292746,205.598709 
	C16.971163,195.357025 6.311244,183.117325 2.927365,165.915024 
	C2.782539,165.178787 1.664616,164.633972 1.000002,164.000000 
M113.755447,272.036133 
	C120.051758,271.714630 122.929031,269.114502 120.797417,262.616455 
	C117.769524,253.386215 113.384850,244.565842 109.151802,235.776520 
	C105.313438,227.806686 101.914391,220.019241 105.483818,210.971786 
	C108.107758,204.320877 113.471657,200.132507 118.827248,196.152466 
	C126.346489,190.564514 132.547089,184.105392 137.122742,175.839722 
	C145.451065,160.795029 144.071808,144.667160 141.618790,128.963303 
	C139.083893,112.735275 133.919678,96.936058 130.511078,80.821198 
	C127.265793,65.478546 124.583908,50.005554 122.102158,34.518101 
	C121.114586,28.355114 121.451271,21.988194 120.877655,15.742352 
	C120.783478,14.716948 119.151100,13.086235 118.134995,13.010851 
	C110.398254,12.436871 102.637993,12.179930 94.276733,11.292208 
	C87.791290,11.192544 81.304504,10.968136 74.820869,11.037516 
	C70.569824,11.083005 66.323334,11.553314 61.136448,11.964738 
	C52.471329,12.159164 43.806213,12.353590 35.495777,12.540058 
	C34.918968,19.156763 34.608368,24.431221 33.970013,29.665712 
	C32.839600,38.935040 32.017872,48.284550 30.140665,57.409958 
	C27.542559,70.039803 23.761208,82.424156 21.085478,95.040665 
	C18.034248,109.427704 15.634074,123.953003 12.964473,138.420715 
	C10.396951,152.335205 11.594803,166.043793 19.281227,177.901657 
	C24.178787,185.457138 31.254532,191.781891 38.056660,197.873413 
	C45.697182,204.715744 53.440392,211.536682 50.749664,222.834625 
	C49.126732,229.649063 44.846199,235.792816 42.173065,242.404968 
	C39.203613,249.750092 36.025566,257.126373 34.231415,264.791748 
	C32.972324,270.171082 36.420731,272.727264 42.096729,272.387726 
	C44.069145,272.269745 46.046616,272.236267 48.408051,272.601410 
	C49.264782,272.455658 50.121510,272.309937 51.500237,272.070038 
	C51.674347,272.100800 51.848457,272.131561 52.656780,272.688904 
	C72.168915,272.779541 91.681038,272.877167 111.193275,272.927063 
	C111.778275,272.928558 112.364540,272.430664 113.755447,272.036133 
z"/>
<path fill="#000000" opacity="0.000000" stroke="none" 
	d="
M1.000002,164.468658 
	C1.664616,164.633972 2.782539,165.178787 2.927365,165.915024 
	C6.311244,183.117325 16.971163,195.357025 30.292746,205.598709 
	C42.042027,214.631607 42.806900,219.849152 35.061874,232.631348 
	C29.138458,242.407181 23.581478,252.563614 22.997387,264.478149 
	C22.596666,272.652252 26.103746,278.544006 33.161133,282.646790 
	C22.364328,283.000000 11.728657,283.000000 1.000000,283.000000 
	C1.000000,243.645813 1.000000,204.291565 1.000002,164.468658 
z"/>
<path fill="#000000" opacity="0.000000" stroke="none" 
	d="
M122.468658,283.000000 
	C123.284447,281.885590 124.570938,280.773529 125.852997,279.656372 
	C132.360870,273.985748 133.871933,266.412048 131.245560,258.961823 
	C127.572487,248.542435 122.567924,238.574265 117.848289,228.547043 
	C112.999588,218.245605 114.124603,213.263596 123.117783,206.391266 
	C127.291756,203.201614 131.358673,199.832642 135.190079,196.241882 
	C143.948730,188.033356 149.291046,177.825073 152.103790,166.218353 
	C152.237930,165.664932 152.844055,165.225876 153.615173,164.866776 
	C154.000000,204.218277 154.000000,243.436539 154.000000,283.000000 
	C143.648331,283.000000 133.292816,283.000000 122.468658,283.000000 
z"/>
<path fill="#000000" opacity="0.000000" stroke="none" 
	d="
M23.531263,1.000000 
	C25.123625,30.967409 19.683552,59.914753 11.349827,88.579720 
	C7.544134,101.669907 5.687341,115.325935 2.899678,128.715546 
	C2.784323,129.269623 2.190055,129.723984 1.409453,130.112396 
	C1.000000,86.999962 1.000000,43.999924 1.000000,1.000000 
	C8.438223,1.000000 15.750375,1.000000 23.531263,1.000000 
z"/>
<path fill="#000000" opacity="0.000000" stroke="none" 
	d="
M154.000000,128.531342 
	C153.006836,126.434235 151.716812,123.940811 151.070999,121.290413 
	C147.991318,108.651558 144.858093,96.018181 142.178009,83.291458 
	C138.890015,67.678116 135.590790,52.042500 133.150833,36.284222 
	C131.620804,26.402590 131.744431,16.270805 130.911591,6.269119 
	C130.783493,4.730852 129.498337,3.288931 128.874146,1.401225 
	C137.309433,1.000000 145.618866,1.000000 154.000000,1.000000 
	C154.000000,43.354202 154.000000,85.708443 154.000000,128.531342 
z"/>
<path fill="#9CA5BF" opacity="0.000000" stroke="none" 
	d="
M76.399994,283.000000 
	C77.217026,282.799500 78.434052,282.598969 79.825531,282.699219 
	C78.933327,283.000000 77.866661,283.000000 76.399994,283.000000 
z"/>
<path fill="#000000" opacity="0.000000" stroke="none" 
	d="
M94.885056,11.824266 
	C102.637993,12.179930 110.398254,12.436871 118.134995,13.010851 
	C119.151100,13.086235 120.783478,14.716948 120.877655,15.742352 
	C121.451271,21.988194 121.114586,28.355114 122.102158,34.518101 
	C124.583908,50.005554 127.265793,65.478546 130.511078,80.821198 
	C133.919678,96.936058 139.083893,112.735275 141.618790,128.963303 
	C144.071808,144.667160 145.451065,160.795029 137.122742,175.839722 
	C132.547089,184.105392 126.346489,190.564514 118.827248,196.152466 
	C113.471657,200.132507 108.107758,204.320877 105.483818,210.971786 
	C101.914391,220.019241 105.313438,227.806686 109.151802,235.776520 
	C113.384850,244.565842 117.769524,253.386215 120.797417,262.616455 
	C122.929031,269.114502 120.051758,271.714630 112.892044,272.035828 
	C92.026619,272.077759 72.024590,272.120026 52.022568,272.162292 
	C51.848457,272.131561 51.674347,272.100800 50.872238,272.052612 
	C49.503418,272.078186 48.762600,272.121185 48.021778,272.164215 
	C46.046616,272.236267 44.069145,272.269745 42.096729,272.387726 
	C36.420731,272.727264 32.972324,270.171082 34.231415,264.791748 
	C36.025566,257.126373 39.203613,249.750092 42.173065,242.404968 
	C44.846199,235.792816 49.126732,229.649063 50.749664,222.834625 
	C53.440392,211.536682 45.697182,204.715744 38.056660,197.873413 
	C31.254532,191.781891 24.178787,185.457138 19.281227,177.901657 
	C11.594803,166.043793 10.396951,152.335205 12.964473,138.420715 
	C15.634074,123.953003 18.034248,109.427704 21.085478,95.040665 
	C23.761208,82.424156 27.542559,70.039803 30.140665,57.409958 
	C32.017872,48.284550 32.839600,38.935040 33.970013,29.665712 
	C34.608368,24.431221 34.918968,19.156763 35.495777,12.540058 
	C43.806213,12.353590 52.471329,12.159164 62.065418,11.963169 
	C73.624611,11.915821 84.254837,11.870044 94.885056,11.824266 
M56.500198,114.043610 
	C45.842747,114.047951 35.183239,114.170601 24.529085,113.985291 
	C21.289789,113.928947 20.315214,115.321686 19.974014,118.174416 
	C19.357821,123.326363 18.537931,128.454666 17.762640,133.586716 
	C16.159986,144.195526 15.519196,154.821518 18.762035,165.218262 
	C22.369310,176.783386 29.773191,185.606842 39.364685,192.851807 
	C56.157227,205.536102 74.875099,209.347488 94.928230,203.782257 
	C106.937920,200.449280 117.171982,193.341141 125.624855,183.914810 
	C135.352737,173.066620 139.367859,160.152252 138.868820,145.921600 
	C138.584793,137.822159 137.041321,129.762711 135.984970,121.695740 
	C134.975861,113.989502 134.930283,113.997993 126.940689,114.000069 
	C103.793770,114.006081 80.646851,114.009872 56.500198,114.043610 
M32.508987,85.984749 
	C34.682697,79.839417 37.525826,73.838577 38.889931,67.518501 
	C41.678833,54.597160 43.871071,41.534298 45.853645,28.460663 
	C46.345524,25.217070 47.628716,24.377268 50.404011,23.972504 
	C59.077122,22.707565 67.726433,21.279421 76.935143,19.827806 
	C64.626450,19.827806 52.981396,19.827806 41.172012,19.827806 
	C40.492016,45.839981 35.419765,70.276680 27.342588,94.177986 
	C27.800838,94.302673 28.259087,94.427361 28.717337,94.552048 
	C29.842216,91.915092 30.967096,89.278145 32.508987,85.984749 
M56.024712,223.443863 
	C53.767220,229.038651 51.718166,234.729568 49.194477,240.201584 
	C46.593754,245.840607 43.244724,251.140320 40.742237,256.817322 
	C37.598171,263.949768 40.697220,269.702087 47.771938,269.746948 
	C55.673397,269.797028 63.579643,269.091644 71.483803,268.715057 
	C69.993538,267.502411 68.387413,267.193024 66.766975,267.011108 
	C60.907589,266.353180 55.036495,265.795013 49.183487,265.086334 
	C45.467777,264.636414 44.591652,262.442871 46.050323,259.199188 
	C49.603630,251.297577 53.252953,243.438950 56.778042,235.524902 
	C60.587612,226.972153 61.777813,218.468628 56.124325,209.871841 
	C56.124325,214.366989 56.124325,218.485397 56.024712,223.443863 
z"/>
<path fill="#1F61B7" opacity="1.000000" stroke="none" 
	d="
M52.339676,272.425598 
	C72.024590,272.120026 92.026619,272.077759 112.489426,272.100555 
	C112.364540,272.430664 111.778275,272.928558 111.193275,272.927063 
	C91.681038,272.877167 72.168915,272.779541 52.339676,272.425598 
z"/>
<path fill="#617DB6" opacity="1.000000" stroke="none" 
	d="
M94.580894,11.558237 
	C84.254837,11.870044 73.624611,11.915821 62.534592,11.897481 
	C66.323334,11.553314 70.569824,11.083005 74.820869,11.037516 
	C81.304504,10.968136 87.791290,11.192544 94.580894,11.558237 
z"/>
<path fill="#1F61B7" opacity="1.000000" stroke="none" 
	d="
M48.214912,272.382812 
	C48.762600,272.121185 49.503418,272.078186 50.611240,272.099670 
	C50.121510,272.309937 49.264782,272.455658 48.214912,272.382812 
z"/>
<path fill="#FFFFFE" opacity="1.000000" stroke="none" 
	d="
M57.000065,114.029068 
	C80.646851,114.009872 103.793770,114.006081 126.940689,114.000069 
	C134.930283,113.997993 134.975861,113.989502 135.984970,121.695740 
	C137.041321,129.762711 138.584793,137.822159 138.868820,145.921600 
	C139.367859,160.152252 135.352737,173.066620 125.624855,183.914810 
	C117.171982,193.341141 106.937920,200.449280 94.928230,203.782257 
	C74.875099,209.347488 56.157227,205.536102 39.364685,192.851807 
	C29.773191,185.606842 22.369310,176.783386 18.762035,165.218262 
	C15.519196,154.821518 16.159986,144.195526 17.762640,133.586716 
	C18.537931,128.454666 19.357821,123.326363 19.974014,118.174416 
	C20.315214,115.321686 21.289789,113.928947 24.529085,113.985291 
	C35.183239,114.170601 45.842747,114.047951 57.000065,114.029068 
M128.200104,159.855667 
	C126.503059,164.009521 124.806007,168.163391 122.897537,172.834732 
	C128.092880,170.996262 130.911469,163.705566 128.200104,159.855667 
z"/>
<path fill="#055FB8" opacity="1.000000" stroke="none" 
	d="
M32.300484,86.312973 
	C30.967096,89.278145 29.842216,91.915092 28.717337,94.552048 
	C28.259087,94.427361 27.800838,94.302673 27.342588,94.177986 
	C35.419765,70.276680 40.492016,45.839981 41.172012,19.827806 
	C52.981396,19.827806 64.626450,19.827806 76.935143,19.827806 
	C67.726433,21.279421 59.077122,22.707565 50.404011,23.972504 
	C47.628716,24.377268 46.345524,25.217070 45.853645,28.460663 
	C43.871071,41.534298 41.678833,54.597160 38.889931,67.518501 
	C37.525826,73.838577 34.682697,79.839417 32.300484,86.312973 
z"/>
<path fill="#055FB8" opacity="1.000000" stroke="none" 
	d="
M56.074516,223.023834 
	C56.124325,218.485397 56.124325,214.366989 56.124325,209.871841 
	C61.777813,218.468628 60.587612,226.972153 56.778042,235.524902 
	C53.252953,243.438950 49.603630,251.297577 46.050323,259.199188 
	C44.591652,262.442871 45.467777,264.636414 49.183487,265.086334 
	C55.036495,265.795013 60.907589,266.353180 66.766975,267.011108 
	C68.387413,267.193024 69.993538,267.502411 71.483803,268.715057 
	C63.579643,269.091644 55.673397,269.797028 47.771938,269.746948 
	C40.697220,269.702087 37.598171,263.949768 40.742237,256.817322 
	C43.244724,251.140320 46.593754,245.840607 49.194477,240.201584 
	C51.718166,234.729568 53.767220,229.038651 56.074516,223.023834 
z"/>
<path fill="#FFFAEB" opacity="1.000000" stroke="none" 
	d="
M128.490173,159.651917 
	C130.911469,163.705566 128.092880,170.996262 122.897537,172.834732 
	C124.806007,168.163391 126.503059,164.009521 128.490173,159.651917 
z"/>
</svg>